<?xml version="1.0" standalone="no"?>
<!DOCTYPE svg PUBLIC "-//W3C//DTD SVG 20010904//EN"
 "http://www.w3.org/TR/2001/REC-SVG-20010904/DTD/svg10.dtd">
<svg version="1.0" xmlns="http://www.w3.org/2000/svg"
 width="512.000000pt" height="512.000000pt" viewBox="0 0 512.000000 512.000000"
 preserveAspectRatio="xMidYMid meet">
<metadata>
Created by potrace 1.14, written by Peter Selinger 2001-2017
</metadata>
<g transform="translate(0.000000,512.000000) scale(0.100000,-0.100000)"
fill="#000000" stroke="none">
<path d="M3205 5105 c-502 -60 -918 -200 -1329 -447 -590 -355 -1070 -925
-1336 -1588 -12 -30 -27 -66 -32 -80 -24 -57 -90 -260 -108 -332 -52 -200 5
-321 200 -431 47 -26 103 -58 125 -71 22 -13 130 -75 240 -138 310 -178 461
-265 576 -334 59 -35 109 -64 112 -64 3 0 34 -17 69 -39 59 -36 497 -291 542
-315 12 -6 32 -18 46 -27 25 -16 332 -193 405 -235 22 -12 98 -56 169 -98 70
-42 130 -76 132 -76 1 0 47 -26 101 -58 54 -33 163 -96 243 -142 80 -46 173
-100 208 -121 35 -22 65 -39 67 -39 3 0 33 -17 68 -39 34 -21 121 -72 192
-113 72 -41 213 -124 315 -183 102 -60 201 -114 220 -121 111 -41 237 13 290
123 l23 48 1 2300 1 2300 -30 54 c-30 54 -84 105 -141 134 -63 32 -331 90
-564 123 -156 21 -654 27 -805 9z"/>
</g>
</svg>
